<svg id="Layer_1" data-name="Layer 1" xmlns="http://www.w3.org/2000/svg" viewBox="0 0 32 32"><defs><style>.cls-1{fill:#29abe2;}.cls-2{fill:#fcee21;}</style></defs><path class="cls-1" d="M7.47,18.77l1.22,2h-3l-1-1.62H3.19v1.62H.63V13.86H6.05a2.53,2.53,0,0,1,2.64,2.63A2.58,2.58,0,0,1,7.47,18.77ZM3.19,17H5.56c.25,0,.57,0,.57-.48S5.81,16,5.56,16H3.19Z"/><path class="cls-1" d="M17.42,15.82v.64h4.72v1.68H17.42v.64h4.72v2H14.86V13.86h7.28v2Z"/><path class="cls-1" d="M31,17.3a3.16,3.16,0,0,1-3.23,3.45H22.65V13.86h5.12A3.15,3.15,0,0,1,31,17.3Zm-2.56,0C28.44,16,27.54,16,27,16H25.21v2.56H27C27.54,18.58,28.44,18.58,28.44,17.3Z"/><path class="cls-2" d="M8.41,12.72,9.85,14l.13-.08c0-.41,0-.82,0-1.22a1.62,1.62,0,0,1,1.65-1.8,3,3,0,0,1,2.73,1.64,1.53,1.53,0,0,1,.12,1c-.55,2.45-1.14,4.89-1.72,7.33-.16.66-.49.94-1.05.95a1.24,1.24,0,0,1-1.21-1c-.7-2.51-1.4-5-2.09-7.54a4.85,4.85,0,0,1-.09-.55Zm.43,1,.12.43,1.8,6.5a.93.93,0,0,0,.93.8c.4,0,.59-.21.73-.81.47-2,.94-4,1.4-5.95a3.4,3.4,0,0,0,.07-.44A4.49,4.49,0,0,1,8.84,13.74Zm4,.55a1.6,1.6,0,0,0,1.21-.79,1.09,1.09,0,0,0-.32-1.22,2.74,2.74,0,0,0-2.21-1,1.28,1.28,0,0,0-1.25,1,.94.94,0,0,0,.92,1.14c0-.29,0-.57,0-.85,0-.53.1-.57.6-.4a2.24,2.24,0,0,1,.36.14,1,1,0,0,1,.69,1.26C12.91,13.79,12.9,14,12.88,14.29Zm-2.52-.86c-.09.77-.06.84.63,1a4.37,4.37,0,0,0,1,.06c.56,0,.58-.07.51-.69A2.41,2.41,0,0,1,10.36,13.43Zm1.27-1-.05,1.15a4.1,4.1,0,0,0,.69-.08.59.59,0,0,0,.33-.29c0-.09-.08-.27-.18-.35A8.61,8.61,0,0,0,11.63,12.39Z"/><path class="cls-2" d="M10.9,20l.63-.15.08.34-.3.38.37-.09.06.26-.62.15L11,20.54l.29-.39-.36.09Z"/><path class="cls-2" d="M11,19.65l.06,0L11,19.16l.15,0,.12.48.06,0-.12-.47.18,0,.18.72-.62.15-.18-.72.18,0Z"/><path class="cls-2" d="M10.36,17.76l.68.08.09.38-.33.2.39,0,.09.38-.57.38-.06-.28.4-.25-.47,0-.08-.3.4-.26-.47,0Z"/><path class="cls-2" d="M10.71,17.44s0-.05,0-.21-.05-.17-.07-.16,0,0,0,.19,0,.44-.1.48-.23-.1-.29-.38,0-.43.11-.47l.06.26s0,.07,0,.19,0,.14.06.14,0,0,0-.18-.08-.45.08-.49.26.11.32.39.07.45-.12.49Z"/><line class="cls-2" x1="11.02" y1="15" x2="12.11" y2="20.55"/><rect class="cls-2" x="11.5" y="14.94" width="0.13" height="5.66" transform="translate(-3.22 2.57) rotate(-11.15)"/><path class="cls-2" d="M15,9.19A5,5,0,0,0,11.4,7.84,5,5,0,0,0,7.83,9.35l-.36-.23a5.47,5.47,0,0,1,3.92-1.66,5.46,5.46,0,0,1,4,1.48Z"/><path class="cls-2" d="M12.91,10.72a2,2,0,0,0-1.46-.54,2,2,0,0,0-1.43.6l-.37-.23a2.56,2.56,0,0,1,1.79-.76,2.51,2.51,0,0,1,1.82.68Z"/><path class="cls-2" d="M13.84,9.71a3.27,3.27,0,0,0-2.39-.89,3.32,3.32,0,0,0-2.35,1l-.36-.24a3.79,3.79,0,0,1,2.7-1.14,3.79,3.79,0,0,1,2.76,1Z"/><line class="cls-2" x1="9.62" y1="14.93" x2="10.06" y2="16.37"/><rect class="cls-2" x="9.77" y="14.9" width="0.13" height="1.51" transform="translate(-4.11 3.52) rotate(-16.84)"/><line class="cls-2" x1="10.23" y1="15.04" x2="10.54" y2="16.28"/><rect class="cls-2" x="10.32" y="15.02" width="0.13" height="1.28" transform="translate(-3.49 2.99) rotate(-14.04)"/><line class="cls-2" x1="11.62" y1="15.07" x2="12.28" y2="18.93"/><rect class="cls-2" x="11.88" y="15.04" width="0.13" height="3.92" transform="translate(-2.67 2.23) rotate(-9.61)"/><line class="cls-2" x1="12.24" y1="15.33" x2="12.58" y2="17.91"/><rect class="cls-2" x="12.34" y="15.32" width="0.13" height="2.6" transform="translate(-2.08 1.78) rotate(-7.56)"/><line class="cls-2" x1="12.84" y1="15.4" x2="13.04" y2="16.85"/><rect class="cls-2" x="12.87" y="15.39" width="0.13" height="1.46" transform="translate(-2.03 1.87) rotate(-7.66)"/></svg>