<svg id="Layer_1" data-name="Layer 1" xmlns="http://www.w3.org/2000/svg" viewBox="0 0 1127.28 532.65"><defs><style>.cls-1{fill:#29abe2;}.cls-2{fill:#fcee21;}</style></defs><path class="cls-1" d="M635.33,609.26l45.31,73.45H568.09l-35.45-59.93H476.73v59.93h-95V426.91h201c58.1,0,97.93,40.93,97.93,97.93C680.64,562.12,663.47,592.81,635.33,609.26Zm-158.6-66.88h87.71c9.5,0,21.19,0,21.19-17.54s-11.69-17.54-21.19-17.54H476.73Z" transform="translate(-381.72 -189.41)"/><path class="cls-1" d="M1004.75,500v23.76h175.41v62.12H1004.75v23.75h175.41v73.09H909.74V426.91h270.42V500Z" transform="translate(-381.72 -189.41)"/><path class="cls-1" d="M1509,554.81c0,87-58.1,127.9-119.86,127.9h-190V426.91h190C1450.9,426.91,1509,467.84,1509,554.81Zm-95,0c0-47.51-33.62-47.51-54.09-47.51h-65.78v95h65.78C1380.37,602.31,1414,602.31,1414,554.81Z" transform="translate(-381.72 -189.41)"/><path class="cls-2" d="M670.24,384.87,724,432.31l4.72-2.95c-.47-15.15-.71-30.32-1.43-45.46-1.82-38.11,23.14-66.57,61.28-66.56,45.32,0,79.78,21.41,101.33,60.82,5.56,10.17,7.1,25.25,4.51,36.73-20.51,90.87-42.34,181.44-64.07,272C824.46,711.31,812,722,791.46,722.06c-21.71.09-38.71-13.54-44.91-35.83q-38.91-140-77.77-280c-1.81-6.58-2.28-13.52-3.37-20.3Zm16.21,37.64c1.39,5.38,2.7,10.78,4.19,16.13Q724.2,559.35,757.76,680c5.38,19.41,17.29,29.76,34.38,29.46,14.92-.27,21.85-7.76,27.15-30.1q26.15-110.29,52.08-220.64c1.11-4.74,1.55-9.64,2.6-16.36C806,474.25,744.74,467.91,686.45,422.51ZM836.36,443c20.14-5,36.87-11.41,44.93-29.48,7.77-17.42-.51-32.45-11.76-45.14-21.69-24.46-48.29-39.81-82.12-38.68-23.86.79-41.85,16-46.68,38.33-4.59,21.24,10.73,40.71,34.39,42.19.6-10.48,1.14-21,1.8-31.45,1.25-19.48,3.82-21.22,22.38-15a104.61,104.61,0,0,1,13.25,5.42c23.21,11.52,28.25,21,25.59,46.85C837.29,424.33,837,432.64,836.36,443Zm-93.66-31.9c-3.18,28.61-2.05,31,23.52,35.7a174.6,174.6,0,0,0,38,2.24c20.52-.81,21.35-2.53,18.7-25.72C794.83,429.94,767.35,430.21,742.7,411.12Zm47.24-38.5c-.79,16.85-1.35,28.64-2,42.61,10.35-1.11,18.4-.85,25.64-3.15,4.89-1.56,10.71-6,12.2-10.49,1.11-3.35-2.92-10.32-6.61-12.95C811.3,383,802.17,379.14,789.94,372.62Z" transform="translate(-381.72 -189.41)"/><path class="cls-2" d="M763,654.45l23.11-5.64,3,12.4-11,14.34,13.64-3.33,2.31,9.49L771,687.34l-3-12.4,10.95-14.34-13.64,3.33Z" transform="translate(-381.72 -189.41)"/><path class="cls-2" d="M766.92,641.9l2.14-.53-4.26-17.5,5.61-1.37,4.27,17.5,2.14-.52L772.55,622l6.61-1.61,6.58,27L762.62,653l-6.57-27,6.6-1.61Z" transform="translate(-381.72 -189.41)"/><path class="cls-2" d="M742.87,572,768,574.71l3.43,14.08-12.28,7.43,14.32.95,3.43,14.08-21.06,14-2.48-10.17,15-9.27-17.66-1.56L748,593l15-9.52-17.6-1.31Z" transform="translate(-381.72 -189.41)"/><path class="cls-2" d="M755.78,559.92c1.12-.27,1.6-1.63.13-7.64-1.37-5.62-1.9-6.38-2.76-6.17s-.92,1.11.37,7.13C756,564.85,755.36,569.68,750,571c-5.08,1.24-8.6-3.73-11.06-13.8s-1.62-16.1,4.29-17.54l2.32,9.48c-1.23.3-1,2.55.17,7.18,1.09,4.45,1.51,5.31,2.4,5.1s.64-1.12-.52-6.72c-2.09-10.15-3-16.54,3.06-18,6.37-1.56,9.41,3.89,12,14.35s2.36,16.7-4.51,18.37Z" transform="translate(-381.72 -189.41)"/><line class="cls-2" x1="385.4" y1="279.94" x2="426.04" y2="486.1"/><rect class="cls-2" x="784.94" y="467.36" width="5" height="210.13" transform="matrix(0.98, -0.19, 0.19, 0.98, -477.55, -26.32)"/><path class="cls-2" d="M916,253.61c-33.42-32.92-82.53-51.11-134.75-49.91s-100.44,21.63-132.32,56l-13.65-8.59c35.09-37.88,88.17-60.36,145.64-61.68s111.54,18.7,148.32,54.93Z" transform="translate(-381.72 -189.41)"/><path class="cls-2" d="M837.29,310.35c-13.4-13.2-33.1-20.5-54-20S743,299,730.19,312.81l-13.65-8.59c16-17.27,40.19-27.52,66.38-28.12s50.84,8.52,67.61,25Z" transform="translate(-381.72 -189.41)"/><path class="cls-2" d="M872.13,272.93c-22-21.7-54.39-33.69-88.8-32.9s-66.2,14.26-87.21,36.94l-13.65-8.59c24.22-26.15,60.86-41.67,100.53-42.58s77,12.91,102.37,37.92Z" transform="translate(-381.72 -189.41)"/><line class="cls-2" x1="333.56" y1="277.38" x2="349.8" y2="331.03"/><rect class="cls-2" x="720.9" y="465.58" width="5" height="56.05" transform="translate(-493.7 41.33) rotate(-16.84)"/><line class="cls-2" x1="356.16" y1="281.36" x2="367.72" y2="327.62"/><rect class="cls-2" x="741.16" y="470.06" width="5" height="47.68" transform="translate(-479.33 5.77) rotate(-14.04)"/><line class="cls-2" x1="407.95" y1="282.42" x2="432.26" y2="425.92"/><rect class="cls-2" x="799.32" y="470.81" width="5" height="145.54" transform="translate(-461.24 -47.87) rotate(-9.61)"/><line class="cls-2" x1="430.69" y1="292.41" x2="443.39" y2="388.15"/><rect class="cls-2" x="816.26" y="481.39" width="5" height="96.58" transform="translate(-444.28 -77.11) rotate(-7.56)"/><line class="cls-2" x1="453.26" y1="294.89" x2="460.5" y2="348.74"/><rect class="cls-2" x="836.1" y="484.05" width="5" height="54.34" transform="translate(-442.36 -73.12) rotate(-7.66)"/></svg>